<svg width="100%" height="100%" viewBox="-2.81562 4.93404 205.631 193.064" version="1.1" xmlns="http://www.w3.org/2000/svg" xmlns:xlink="http://www.w3.org/1999/xlink" xmlns:t="http://www.tagul.com/schema">
  <style type="text/css"><![CDATA[
svg {background-color: 0;}
rect {opacity: 0;}]]></style>
  <t:styleOptions>
    <t:backgroundColor>FFFFFF</t:backgroundColor>
    <t:backgroundColorAlpha>1</t:backgroundColorAlpha>
    <t:animationSpeed>0.200000002980232</t:animationSpeed>
    <t:zoom>1</t:zoom>
    <t:rotate>1</t:rotate>
    <t:openLinksInNewWindow>0</t:openLinksInNewWindow>
  </t:styleOptions>
  <defs>
    <symbol overflow="visible" id="f0g115">
      <path d="M 243 -548 Q 300 -548 342 -534 Q 385 -520 418 -489 L 376 -409 Q 365 -422 347 -431 Q 330 -440 310 -446 Q 291 -452 272 -454 Q 253 -457 239 -457 Q 202 -457 178 -443 Q 155 -430 155 -404 Q 155 -390 171 -377 Q 187 -365 206 -355 Q 240 -337 282 -323 Q 325 -310 362 -290 Q 399 -271 424 -238 Q 450 -206 450 -151 Q 450 -103 431 -72 Q 413 -41 384 -22 Q 355 -3 318 4 Q 282 12 245 12 Q 176 12 124 -5 Q 73 -22 31 -53 L 72 -134 Q 102 -109 148 -94 Q 194 -80 242 -80 Q 260 -80 279 -83 Q 299 -86 314 -93 Q 330 -100 340 -112 Q 351 -124 351 -142 Q 351 -165 333 -180 Q 316 -195 293 -209 Q 273 -220 247 -228 Q 222 -237 195 -246 Q 169 -256 144 -268 Q 119 -281 99 -298 Q 80 -316 68 -341 Q 56 -366 56 -401 Q 56 -444 73 -472 Q 91 -500 118 -517 Q 146 -534 179 -541 Q 212 -548 243 -548 "/>
    </symbol>
    <symbol overflow="visible" id="f0g112">
      <path d="M 73 -531 L 162 -531 L 162 -476 Q 176 -506 214 -525 Q 252 -545 298 -545 Q 341 -545 378 -527 Q 415 -509 442 -473 Q 469 -438 484 -386 Q 499 -334 499 -266 Q 499 -197 484 -144 Q 470 -92 443 -57 Q 417 -22 380 -4 Q 344 14 300 14 Q 254 14 222 -3 Q 190 -20 172 -50 L 172 159 L 73 192 L 73 -531 M 278 -81 Q 339 -81 371 -126 Q 404 -171 404 -265 Q 404 -356 372 -403 Q 340 -450 282 -450 Q 237 -450 207 -420 Q 177 -391 166 -349 L 166 -176 Q 180 -128 211 -104 Q 243 -81 278 -81 "/>
    </symbol>
    <symbol overflow="visible" id="f0g111">
      <path d="M 282 -545 Q 331 -545 373 -527 Q 415 -509 445 -474 Q 475 -439 492 -386 Q 509 -334 509 -265 Q 509 -196 492 -144 Q 475 -92 445 -57 Q 415 -22 373 -4 Q 331 14 282 14 Q 232 14 190 -4 Q 149 -22 119 -57 Q 89 -92 72 -144 Q 55 -196 55 -265 Q 55 -334 72 -386 Q 89 -439 119 -474 Q 149 -509 190 -527 Q 232 -545 282 -545 M 282 -447 Q 222 -447 187 -401 Q 153 -356 153 -265 Q 153 -174 187 -128 Q 222 -83 282 -83 Q 342 -83 377 -128 Q 412 -174 412 -265 Q 412 -356 377 -401 Q 342 -447 282 -447 "/>
    </symbol>
    <symbol overflow="visible" id="f0g114">
      <path d="M 167 -531 L 167 -480 Q 183 -511 215 -528 Q 248 -545 285 -545 Q 306 -545 326 -539 Q 346 -533 360 -519 L 324 -430 Q 295 -450 267 -450 Q 203 -450 172 -354 L 172 0 L 73 0 L 73 -531 L 167 -531 "/>
    </symbol>
    <symbol overflow="visible" id="f0g116">
      <path d="M 196 1 Q 175 1 154 -7 Q 133 -15 116 -30 Q 100 -46 90 -69 Q 80 -92 80 -123 L 80 -447 L 15 -447 L 15 -531 L 80 -531 L 80 -680 L 180 -714 L 180 -531 L 287 -531 L 287 -447 L 180 -447 L 180 -141 Q 180 -120 195 -108 Q 210 -96 229 -96 Q 248 -96 269 -105 Q 290 -114 306 -132 L 285 -25 Q 274 -14 249 -6 Q 225 1 196 1 "/>
    </symbol>
    <symbol overflow="visible" id="f0g98">
      <path d="M 174 -481 Q 194 -512 229 -528 Q 265 -545 310 -545 Q 353 -545 390 -527 Q 427 -509 454 -474 Q 482 -439 497 -386 Q 513 -334 513 -265 Q 513 -197 497 -145 Q 481 -93 453 -58 Q 425 -23 386 -4 Q 348 14 303 14 Q 258 14 219 -4 Q 180 -23 164 -55 L 164 0 L 75 0 L 75 -695 L 174 -729 L 174 -481 M 283 -450 Q 210 -450 168 -355 L 168 -182 Q 176 -162 187 -144 Q 198 -126 212 -112 Q 227 -98 245 -89 Q 264 -81 287 -81 Q 345 -81 380 -127 Q 416 -173 416 -266 Q 416 -360 380 -405 Q 344 -450 283 -450 "/>
    </symbol>
    <symbol overflow="visible" id="f0g105">
      <path d="M 179 -531 L 179 0 L 79 0 L 79 -531 L 179 -531 M 77 -662 Q 77 -684 91 -700 Q 106 -716 128 -716 Q 150 -716 165 -700 Q 181 -684 181 -662 Q 181 -641 165 -626 Q 150 -611 128 -611 Q 106 -611 91 -626 Q 77 -641 77 -662 "/>
    </symbol>
    <symbol overflow="visible" id="f0g107">
      <path d="M 369 0 L 245 -273 L 174 -182 L 174 0 L 75 0 L 75 -695 L 174 -729 L 174 -329 L 319 -531 L 447 -531 L 307 -352 L 487 0 L 369 0 "/>
    </symbol>
    <symbol overflow="visible" id="f0g101">
      <path d="M 279 -545 Q 328 -545 369 -526 Q 410 -508 439 -472 Q 469 -437 485 -386 Q 502 -335 502 -270 Q 502 -255 497 -235 L 152 -235 Q 157 -160 193 -119 Q 230 -79 290 -79 Q 324 -79 352 -92 Q 381 -106 401 -129 L 464 -73 Q 438 -35 389 -10 Q 340 14 284 14 Q 235 14 193 -4 Q 151 -22 120 -57 Q 90 -92 72 -144 Q 55 -196 55 -265 Q 55 -334 71 -386 Q 87 -439 116 -474 Q 146 -509 187 -527 Q 229 -545 279 -545 M 279 -453 Q 225 -453 193 -417 Q 162 -382 155 -313 L 402 -313 Q 395 -382 363 -417 Q 331 -453 279 -453 "/>
    </symbol>
    <symbol overflow="visible" id="f0g97">
      <path d="M 370 -51 Q 346 -20 310 -3 Q 274 14 226 14 Q 192 14 158 3 Q 125 -8 98 -30 Q 72 -53 55 -87 Q 39 -121 39 -168 Q 39 -212 55 -244 Q 71 -277 99 -298 Q 127 -319 164 -329 Q 202 -340 246 -340 Q 289 -340 318 -327 Q 348 -315 366 -299 Q 366 -336 361 -364 Q 356 -393 343 -412 Q 331 -431 308 -441 Q 286 -451 252 -451 Q 212 -451 179 -438 Q 146 -425 127 -411 L 84 -492 Q 107 -513 152 -529 Q 198 -545 261 -545 Q 364 -545 411 -488 Q 459 -431 459 -307 L 459 0 L 370 0 L 370 -51 M 366 -216 Q 349 -236 316 -248 Q 284 -261 245 -261 Q 191 -261 161 -238 Q 132 -216 132 -168 Q 132 -123 162 -99 Q 192 -75 243 -75 Q 264 -75 283 -81 Q 303 -88 319 -97 Q 336 -107 348 -119 Q 360 -132 366 -144 L 366 -216 "/>
    </symbol>
    <symbol overflow="visible" id="f0g104">
      <path d="M 386 -322 Q 386 -443 295 -443 Q 255 -443 225 -423 Q 195 -403 174 -354 L 174 0 L 75 0 L 75 -695 L 174 -729 L 174 -480 Q 200 -514 235 -529 Q 271 -545 314 -545 Q 350 -545 381 -532 Q 412 -519 435 -493 Q 459 -468 472 -430 Q 485 -392 485 -341 L 485 0 L 386 0 L 386 -322 "/>
    </symbol>
    <symbol overflow="visible" id="f0g99">
      <path d="M 285 -447 Q 225 -447 188 -401 Q 151 -356 151 -265 Q 151 -174 188 -128 Q 225 -83 285 -83 Q 314 -83 342 -100 Q 370 -117 391 -146 L 463 -82 Q 450 -64 432 -46 Q 414 -29 391 -15 Q 368 -2 340 6 Q 312 14 279 14 Q 231 14 190 -4 Q 149 -22 118 -57 Q 88 -92 70 -144 Q 53 -196 53 -265 Q 53 -334 70 -386 Q 88 -439 119 -474 Q 151 -509 194 -527 Q 238 -545 290 -545 Q 351 -545 398 -517 Q 445 -490 469 -441 L 393 -372 Q 375 -411 349 -429 Q 323 -447 285 -447 "/>
    </symbol>
    <symbol overflow="visible" id="f0g121">
      <path d="M 226 192 L 122 192 L 200 -28 L 19 -531 L 129 -531 L 254 -157 L 378 -531 L 486 -531 L 226 192 "/>
    </symbol>
    <symbol overflow="visible" id="f0g108">
      <path d="M 75 -695 L 174 -729 L 174 0 L 75 0 L 75 -695 "/>
    </symbol>
    <symbol overflow="visible" id="f0g110">
      <path d="M 384 -322 Q 384 -388 357 -417 Q 331 -447 283 -447 Q 212 -447 172 -354 L 172 0 L 73 0 L 73 -531 L 167 -531 L 167 -480 Q 196 -514 233 -529 Q 270 -545 312 -545 Q 348 -545 379 -532 Q 410 -519 433 -493 Q 457 -468 470 -430 Q 483 -392 483 -341 L 483 0 L 384 0 L 384 -322 "/>
    </symbol>
    <symbol overflow="visible" id="f0g102">
      <path d="M 77 -531 L 77 -596 Q 77 -659 105 -692 Q 134 -725 191 -725 Q 224 -725 255 -714 L 255 -628 Q 238 -637 214 -637 Q 195 -637 186 -626 Q 177 -616 177 -590 L 177 -531 L 255 -531 L 255 -447 L 177 -447 L 177 0 L 77 0 L 77 -447 L 27 -447 L 27 -531 L 77 -531 "/>
    </symbol>
    <symbol overflow="visible" id="f0g32">
      <path d=""/>
    </symbol>
    <symbol overflow="visible" id="f0g100">
      <path d="M 480 0 L 391 0 L 391 -55 Q 378 -25 339 -5 Q 301 14 255 14 Q 211 14 174 -4 Q 138 -22 111 -57 Q 85 -93 70 -145 Q 55 -197 55 -265 Q 55 -334 69 -386 Q 84 -439 110 -474 Q 137 -509 173 -527 Q 210 -545 254 -545 Q 299 -545 331 -528 Q 363 -511 381 -481 L 381 -695 L 480 -729 L 480 0 M 275 -450 Q 214 -450 181 -405 Q 149 -360 149 -266 Q 149 -175 181 -128 Q 213 -81 271 -81 Q 316 -81 344 -109 Q 373 -137 387 -182 L 387 -355 Q 370 -406 340 -428 Q 311 -450 275 -450 "/>
    </symbol>
    <symbol overflow="visible" id="f0g103">
      <path d="M 266 -9 Q 218 -9 179 -25 Q 141 -42 113 -75 Q 85 -108 70 -158 Q 55 -208 55 -275 Q 55 -342 71 -392 Q 87 -443 114 -477 Q 142 -511 179 -528 Q 216 -545 258 -545 Q 300 -545 336 -528 Q 373 -512 394 -481 L 394 -531 L 488 -531 L 488 -109 Q 488 -55 476 -6 Q 464 43 436 83 Q 408 123 362 151 Q 316 179 247 192 L 229 106 Q 265 96 296 79 Q 327 62 349 38 Q 371 15 383 -14 Q 396 -43 396 -76 Q 371 -42 337 -25 Q 303 -9 266 -9 M 279 -103 Q 352 -103 394 -192 L 394 -357 Q 378 -396 349 -425 Q 321 -455 276 -455 Q 218 -455 183 -411 Q 149 -368 149 -278 Q 149 -187 184 -145 Q 219 -103 279 -103 "/>
    </symbol>
    <symbol overflow="visible" id="f0g117">
      <path d="M 172 -242 Q 172 -161 193 -122 Q 215 -84 269 -84 Q 304 -84 329 -106 Q 354 -129 374 -177 L 374 -531 L 473 -531 L 473 0 L 379 0 L 379 -51 Q 353 -17 318 -1 Q 283 14 245 14 Q 209 14 177 1 Q 146 -11 123 -36 Q 100 -62 86 -100 Q 73 -139 73 -190 L 73 -531 L 172 -531 L 172 -242 "/>
    </symbol>
    <symbol overflow="visible" id="f0g106">
      <path d="M 186 -531 L 186 3 Q 186 39 175 70 Q 165 102 145 125 Q 125 149 95 163 Q 65 177 25 177 L 25 74 Q 54 74 70 55 Q 86 37 86 3 L 86 -531 L 186 -531 M 135 -716 Q 157 -716 172 -700 Q 188 -684 188 -662 Q 188 -640 172 -625 Q 157 -611 135 -611 Q 113 -611 98 -625 Q 84 -640 84 -662 Q 84 -684 98 -700 Q 113 -716 135 -716 "/>
    </symbol>
    <symbol overflow="visible" id="f0g120">
      <path d="M 32 -531 L 153 -531 L 256 -365 L 349 -531 L 470 -531 L 305 -273 L 482 0 L 359 0 L 246 -186 L 140 0 L 19 0 L 195 -280 L 32 -531 "/>
    </symbol>
    <symbol overflow="visible" id="f0g109">
      <path d="M 167 -531 L 167 -480 Q 195 -514 228 -529 Q 262 -545 302 -545 Q 390 -545 428 -462 Q 448 -496 484 -520 Q 521 -545 572 -545 Q 659 -545 708 -495 Q 758 -445 758 -345 L 758 0 L 659 0 L 659 -322 Q 659 -391 637 -419 Q 615 -447 567 -447 Q 525 -447 500 -416 Q 476 -386 465 -338 L 465 0 L 365 0 L 365 -322 Q 365 -391 343 -419 Q 322 -447 274 -447 Q 239 -447 215 -424 Q 192 -402 172 -354 L 172 0 L 73 0 L 73 -531 L 167 -531 "/>
    </symbol>
    <symbol overflow="visible" id="f0g119">
      <path d="M 171 0 L 21 -531 L 129 -531 L 217 -179 L 316 -531 L 407 -531 L 505 -179 L 593 -531 L 699 -531 L 549 0 L 461 0 L 359 -341 L 258 0 L 171 0 "/>
    </symbol>
  </defs>
  <a xlink:href="http://tagul.com/go?tag=sports" target="_top">
    <t:tag>sports</t:tag>
    <g transform="matrix(0.0672226,0,0,0.0672226,6.22447,118.92)" fill="#5056FF">
      <rect x="-134.48" y="-870.48" width="3058.96" height="1212.96"/>
      <use xlink:href="#f0g115" x="0" y="0"/>
      <use xlink:href="#f0g112" x="491" y="0"/>
      <use xlink:href="#f0g111" x="1045" y="0"/>
      <use xlink:href="#f0g114" x="1609" y="0"/>
      <use xlink:href="#f0g116" x="1988" y="0"/>
      <use xlink:href="#f0g115" x="2324" y="0"/>
    </g>
  </a>
  <a xlink:href="http://tagul.com/go?tag=bike" target="_top">
    <t:tag>bike</t:tag>
    <g transform="matrix(0.0630772,0,0,0.0630772,51.1556,168.893)" fill="#2E3192">
      <rect x="-60.08" y="-860.08" width="1999.16" height="1000.16"/>
      <use xlink:href="#f0g98" x="0" y="0"/>
      <use xlink:href="#f0g105" x="568" y="0"/>
      <use xlink:href="#f0g107" x="826" y="0"/>
      <use xlink:href="#f0g101" x="1303" y="0"/>
    </g>
  </a>
  <a xlink:href="http://tagul.com/go?tag=skate" target="_top">
    <t:tag>skate</t:tag>
    <g transform="matrix(0.0550531,0,0,0.0550531,35.0757,68.8191)" fill="#2E3192">
      <rect x="-108.08" y="-860.08" width="2577.16" height="1000.16"/>
      <use xlink:href="#f0g115" x="0" y="0"/>
      <use xlink:href="#f0g107" x="491" y="0"/>
      <use xlink:href="#f0g97" x="973" y="0"/>
      <use xlink:href="#f0g116" x="1497" y="0"/>
      <use xlink:href="#f0g101" x="1833" y="0"/>
    </g>
  </a>
  <a xlink:href="http://tagul.com/go?tag=hockey" target="_top">
    <t:tag>hockey</t:tag>
    <g transform="matrix(0.0230603,0,0,0.0230603,65.1047,187.272)" fill="#2E3192">
      <rect x="-89.12" y="-889.12" width="3365.24" height="1234.24"/>
      <use xlink:href="#f0g104" x="0" y="0"/>
      <use xlink:href="#f0g111" x="558" y="0"/>
      <use xlink:href="#f0g99" x="1122" y="0"/>
      <use xlink:href="#f0g107" x="1624" y="0"/>
      <use xlink:href="#f0g101" x="2101" y="0"/>
      <use xlink:href="#f0g121" x="2627" y="0"/>
    </g>
  </a>
  <a xlink:href="http://tagul.com/go?tag=learn" target="_top">
    <t:tag>learn</t:tag>
    <g transform="matrix(0.0271276,0,0,0.0271276,71.0544,28.2659)" fill="#2E3192">
      <rect x="-60.08" y="-860.08" width="2387.16" height="1000.16"/>
      <use xlink:href="#f0g108" x="0" y="0"/>
      <use xlink:href="#f0g101" x="249" y="0"/>
      <use xlink:href="#f0g97" x="804" y="0"/>
      <use xlink:href="#f0g114" x="1328" y="0"/>
      <use xlink:href="#f0g110" x="1707" y="0"/>
    </g>
  </a>
  <a xlink:href="http://tagul.com/go?tag=ski" target="_top">
    <t:tag>ski</t:tag>
    <g transform="matrix(0.0302564,0,0,0.0302564,18.8159,155.789)" fill="#2E3192">
      <rect x="-107.42" y="-859.42" width="1416.84" height="994.84"/>
      <use xlink:href="#f0g115" x="0" y="0"/>
      <use xlink:href="#f0g107" x="491" y="0"/>
      <use xlink:href="#f0g105" x="994" y="0"/>
    </g>
  </a>
  <a xlink:href="http://tagul.com/go?tag=first aid gestures" target="_top">
    <t:tag>first aid gestures</t:tag>
    <g transform="matrix(0.0112068,0,0,0.0112068,52.9052,78.5483)" fill="#5056FF">
      <rect x="-137.12" y="-889.12" width="7848.24" height="1234.24"/>
      <use xlink:href="#f0g102" x="0" y="0"/>
      <use xlink:href="#f0g105" x="274" y="0"/>
      <use xlink:href="#f0g114" x="532" y="0"/>
      <use xlink:href="#f0g115" x="911" y="0"/>
      <use xlink:href="#f0g116" x="1402" y="0"/>
      <use xlink:href="#f0g32" x="1738" y="0"/>
      <use xlink:href="#f0g97" x="2056" y="0"/>
      <use xlink:href="#f0g105" x="2580" y="0"/>
      <use xlink:href="#f0g100" x="2838" y="0"/>
      <use xlink:href="#f0g32" x="3393" y="0"/>
      <use xlink:href="#f0g103" x="3711" y="0"/>
      <use xlink:href="#f0g101" x="4272" y="0"/>
      <use xlink:href="#f0g115" x="4827" y="0"/>
      <use xlink:href="#f0g116" x="5318" y="0"/>
      <use xlink:href="#f0g117" x="5654" y="0"/>
      <use xlink:href="#f0g114" x="6200" y="0"/>
      <use xlink:href="#f0g101" x="6553" y="0"/>
      <use xlink:href="#f0g115" x="7108" y="0"/>
    </g>
  </a>
  <a xlink:href="http://tagul.com/go?tag=cars" target="_top">
    <t:tag>cars</t:tag>
    <g transform="matrix(0.0215277,0,0,0.0215277,140.159,132.356)" fill="#2E3192">
      <rect x="-47.04" y="-655.04" width="1997.08" height="766.08"/>
      <use xlink:href="#f0g99" x="0" y="0"/>
      <use xlink:href="#f0g97" x="502" y="0"/>
      <use xlink:href="#f0g114" x="1026" y="0"/>
      <use xlink:href="#f0g115" x="1405" y="0"/>
    </g>
  </a>
  <a xlink:href="http://tagul.com/go?tag=tennis" target="_top">
    <t:tag>tennis</t:tag>
    <g transform="matrix(0.0141303,0,0,0.0141303,13.4447,80.4739)" fill="#5056FF">
      <rect x="-121.44" y="-841.44" width="2953.88" height="978.88"/>
      <use xlink:href="#f0g116" x="0" y="0"/>
      <use xlink:href="#f0g101" x="336" y="0"/>
      <use xlink:href="#f0g110" x="891" y="0"/>
      <use xlink:href="#f0g110" x="1447" y="0"/>
      <use xlink:href="#f0g105" x="2003" y="0"/>
      <use xlink:href="#f0g115" x="2261" y="0"/>
    </g>
  </a>
  <a xlink:href="http://tagul.com/go?tag=concert" target="_top">
    <t:tag>concert</t:tag>
    <g transform="matrix(0.011413,0,0,0.011413,153.61,80.5174)" fill="#2E3192">
      <rect x="-73.44" y="-841.44" width="3572.88" height="978.88"/>
      <use xlink:href="#f0g99" x="0" y="0"/>
      <use xlink:href="#f0g111" x="502" y="0"/>
      <use xlink:href="#f0g110" x="1066" y="0"/>
      <use xlink:href="#f0g99" x="1622" y="0"/>
      <use xlink:href="#f0g101" x="2124" y="0"/>
      <use xlink:href="#f0g114" x="2679" y="0"/>
      <use xlink:href="#f0g116" x="3058" y="0"/>
    </g>
  </a>
  <a xlink:href="http://tagul.com/go?tag=juggling" target="_top">
    <t:tag>juggling</t:tag>
    <g transform="matrix(0.0101292,0,0,0.0101292,6.78396,127.755)" fill="#2E3192">
      <rect x="-137.12" y="-889.12" width="3772.24" height="1234.24"/>
      <use xlink:href="#f0g106" x="0" y="0"/>
      <use xlink:href="#f0g117" x="263" y="0"/>
      <use xlink:href="#f0g103" x="809" y="0"/>
      <use xlink:href="#f0g103" x="1370" y="0"/>
      <use xlink:href="#f0g108" x="1931" y="0"/>
      <use xlink:href="#f0g105" x="2180" y="0"/>
      <use xlink:href="#f0g110" x="2438" y="0"/>
      <use xlink:href="#f0g103" x="2994" y="0"/>
    </g>
  </a>
  <a xlink:href="http://tagul.com/go?tag=sciences" target="_top">
    <t:tag>sciences</t:tag>
    <g transform="matrix(0.0112639,0,0,0.0112639,78.1198,196.476)" fill="#5056FF">
      <rect x="-105.11" y="-841.11" width="4095.22" height="976.22"/>
      <use xlink:href="#f0g115" x="0" y="0"/>
      <use xlink:href="#f0g99" x="491" y="0"/>
      <use xlink:href="#f0g105" x="993" y="0"/>
      <use xlink:href="#f0g101" x="1251" y="0"/>
      <use xlink:href="#f0g110" x="1806" y="0"/>
      <use xlink:href="#f0g99" x="2362" y="0"/>
      <use xlink:href="#f0g101" x="2864" y="0"/>
      <use xlink:href="#f0g115" x="3419" y="0"/>
    </g>
  </a>
  <a xlink:href="http://tagul.com/go?tag=product presentation" target="_top">
    <t:tag>product presentation</t:tag>
    <g transform="matrix(0.00566976,0,0,0.00566976,75.9372,11.5422)" fill="#5056FF">
      <rect x="-89.12" y="-889.12" width="9548.24" height="1234.24"/>
      <use xlink:href="#f0g112" x="0" y="0"/>
      <use xlink:href="#f0g114" x="554" y="0"/>
      <use xlink:href="#f0g111" x="907" y="0"/>
      <use xlink:href="#f0g100" x="1471" y="0"/>
      <use xlink:href="#f0g117" x="2026" y="0"/>
      <use xlink:href="#f0g99" x="2572" y="0"/>
      <use xlink:href="#f0g116" x="3074" y="0"/>
      <use xlink:href="#f0g32" x="3410" y="0"/>
      <use xlink:href="#f0g112" x="3728" y="0"/>
      <use xlink:href="#f0g114" x="4282" y="0"/>
      <use xlink:href="#f0g101" x="4635" y="0"/>
      <use xlink:href="#f0g115" x="5190" y="0"/>
      <use xlink:href="#f0g101" x="5681" y="0"/>
      <use xlink:href="#f0g110" x="6236" y="0"/>
      <use xlink:href="#f0g116" x="6792" y="0"/>
      <use xlink:href="#f0g97" x="7128" y="0"/>
      <use xlink:href="#f0g116" x="7652" y="0"/>
      <use xlink:href="#f0g105" x="7988" y="0"/>
      <use xlink:href="#f0g111" x="8246" y="0"/>
      <use xlink:href="#f0g110" x="8810" y="0"/>
    </g>
  </a>
  <a xlink:href="http://tagul.com/go?tag=party" target="_top">
    <t:tag>party</t:tag>
    <g transform="matrix(0.0132135,0,0,0.0132135,130.454,33.9883)" fill="#2E3192">
      <rect x="-86.48" y="-870.48" width="2525.96" height="1212.96"/>
      <use xlink:href="#f0g112" x="0" y="0"/>
      <use xlink:href="#f0g97" x="554" y="0"/>
      <use xlink:href="#f0g114" x="1078" y="0"/>
      <use xlink:href="#f0g116" x="1457" y="0"/>
      <use xlink:href="#f0g121" x="1793" y="0"/>
    </g>
  </a>
  <a xlink:href="http://tagul.com/go?tag=acrobatics" target="_top">
    <t:tag>acrobatics</t:tag>
    <g transform="matrix(0.00984035,0,0,0.00984035,73.8032,36.5425)" fill="#5056FF">
      <rect x="-92.08" y="-860.08" width="4797.16" height="1000.16"/>
      <use xlink:href="#f0g97" x="0" y="0"/>
      <use xlink:href="#f0g99" x="524" y="0"/>
      <use xlink:href="#f0g114" x="1026" y="0"/>
      <use xlink:href="#f0g111" x="1379" y="0"/>
      <use xlink:href="#f0g98" x="1943" y="0"/>
      <use xlink:href="#f0g97" x="2511" y="0"/>
      <use xlink:href="#f0g116" x="3035" y="0"/>
      <use xlink:href="#f0g105" x="3371" y="0"/>
      <use xlink:href="#f0g99" x="3629" y="0"/>
      <use xlink:href="#f0g115" x="4131" y="0"/>
    </g>
  </a>
  <a xlink:href="http://tagul.com/go?tag=foot" target="_top">
    <t:tag>foot</t:tag>
    <g transform="matrix(0.0160609,0,0,0.0160609,63.0431,132.282)" fill="#2E3192">
      <rect x="-108.08" y="-860.08" width="1954.16" height="1000.16"/>
      <use xlink:href="#f0g102" x="0" y="0"/>
      <use xlink:href="#f0g111" x="274" y="0"/>
      <use xlink:href="#f0g111" x="838" y="0"/>
      <use xlink:href="#f0g116" x="1402" y="0"/>
    </g>
  </a>
  <a xlink:href="http://tagul.com/go?tag=concert" target="_top">
    <t:tag>concert</t:tag>
    <g transform="matrix(0.00942941,0,0,0.00942941,32.8474,36.3192)" fill="#2E3192">
      <rect x="-73.44" y="-841.44" width="3572.88" height="978.88"/>
      <use xlink:href="#f0g99" x="0" y="0"/>
      <use xlink:href="#f0g111" x="502" y="0"/>
      <use xlink:href="#f0g110" x="1066" y="0"/>
      <use xlink:href="#f0g99" x="1622" y="0"/>
      <use xlink:href="#f0g101" x="2124" y="0"/>
      <use xlink:href="#f0g114" x="2679" y="0"/>
      <use xlink:href="#f0g116" x="3058" y="0"/>
    </g>
  </a>
  <a xlink:href="http://tagul.com/go?tag=explosions" target="_top">
    <t:tag>explosions</t:tag>
    <g transform="matrix(0.0058189,0,0,0.0058189,42.651,26.5827)" fill="#2E3192">
      <rect x="-105.12" y="-889.12" width="4970.24" height="1234.24"/>
      <use xlink:href="#f0g101" x="0" y="0"/>
      <use xlink:href="#f0g120" x="524" y="0"/>
      <use xlink:href="#f0g112" x="1026" y="0"/>
      <use xlink:href="#f0g108" x="1580" y="0"/>
      <use xlink:href="#f0g111" x="1829" y="0"/>
      <use xlink:href="#f0g115" x="2393" y="0"/>
      <use xlink:href="#f0g105" x="2884" y="0"/>
      <use xlink:href="#f0g111" x="3142" y="0"/>
      <use xlink:href="#f0g110" x="3706" y="0"/>
      <use xlink:href="#f0g115" x="4262" y="0"/>
    </g>
  </a>
  <a xlink:href="http://tagul.com/go?tag=horse riding" target="_top">
    <t:tag>horse riding</t:tag>
    <g transform="matrix(0.00574125,0,0,0.00574125,23.9326,161.562)" fill="#5056FF">
      <rect x="-89.12" y="-889.12" width="5601.24" height="1234.24"/>
      <use xlink:href="#f0g104" x="0" y="0"/>
      <use xlink:href="#f0g111" x="558" y="0"/>
      <use xlink:href="#f0g114" x="1122" y="0"/>
      <use xlink:href="#f0g115" x="1501" y="0"/>
      <use xlink:href="#f0g101" x="1992" y="0"/>
      <use xlink:href="#f0g32" x="2547" y="0"/>
      <use xlink:href="#f0g114" x="2865" y="0"/>
      <use xlink:href="#f0g105" x="3244" y="0"/>
      <use xlink:href="#f0g100" x="3502" y="0"/>
      <use xlink:href="#f0g105" x="4057" y="0"/>
      <use xlink:href="#f0g110" x="4315" y="0"/>
      <use xlink:href="#f0g103" x="4871" y="0"/>
    </g>
  </a>
  <a xlink:href="http://tagul.com/go?tag=martal arts" target="_top">
    <t:tag>martal arts</t:tag>
    <g transform="matrix(0.00585097,0,0,0.00585097,114.121,173.606)" fill="#2E3192">
      <rect x="-60.08" y="-860.08" width="5035.16" height="1000.16"/>
      <use xlink:href="#f0g109" x="0" y="0"/>
      <use xlink:href="#f0g97" x="832" y="0"/>
      <use xlink:href="#f0g114" x="1356" y="0"/>
      <use xlink:href="#f0g116" x="1735" y="0"/>
      <use xlink:href="#f0g97" x="2071" y="0"/>
      <use xlink:href="#f0g108" x="2595" y="0"/>
      <use xlink:href="#f0g32" x="2844" y="0"/>
      <use xlink:href="#f0g97" x="3162" y="0"/>
      <use xlink:href="#f0g114" x="3686" y="0"/>
      <use xlink:href="#f0g116" x="4065" y="0"/>
      <use xlink:href="#f0g115" x="4401" y="0"/>
    </g>
  </a>
  <a xlink:href="http://tagul.com/go?tag=fireworks" target="_top">
    <t:tag>fireworks</t:tag>
    <g transform="matrix(0.00718076,0,0,0.00718076,162.592,71.5851)" fill="#5056FF">
      <rect x="-108.08" y="-860.08" width="4229.16" height="1000.16"/>
      <use xlink:href="#f0g102" x="0" y="0"/>
      <use xlink:href="#f0g105" x="274" y="0"/>
      <use xlink:href="#f0g114" x="532" y="0"/>
      <use xlink:href="#f0g101" x="885" y="0"/>
      <use xlink:href="#f0g119" x="1411" y="0"/>
      <use xlink:href="#f0g111" x="2101" y="0"/>
      <use xlink:href="#f0g114" x="2665" y="0"/>
      <use xlink:href="#f0g107" x="3044" y="0"/>
      <use xlink:href="#f0g115" x="3547" y="0"/>
    </g>
  </a>
  <a xlink:href="http://tagul.com/go?tag=danse" target="_top">
    <t:tag>danse</t:tag>
    <g transform="matrix(0.00984034,0,0,0.00984034,39.2844,177.543)" fill="#2E3192">
      <rect x="-76.08" y="-860.08" width="2838.16" height="1000.16"/>
      <use xlink:href="#f0g100" x="0" y="0"/>
      <use xlink:href="#f0g97" x="555" y="0"/>
      <use xlink:href="#f0g110" x="1079" y="0"/>
      <use xlink:href="#f0g115" x="1635" y="0"/>
      <use xlink:href="#f0g101" x="2126" y="0"/>
    </g>
  </a>
  <a xlink:href="http://tagul.com/go?tag=falling people" target="_top">
    <t:tag>falling people</t:tag>
    <g transform="matrix(0.00474131,0,0,0.00474131,161.793,136.79)" fill="#2E3192">
      <rect x="-137.12" y="-889.12" width="6267.24" height="1234.24"/>
      <use xlink:href="#f0g102" x="0" y="0"/>
      <use xlink:href="#f0g97" x="274" y="0"/>
      <use xlink:href="#f0g108" x="798" y="0"/>
      <use xlink:href="#f0g108" x="1047" y="0"/>
      <use xlink:href="#f0g105" x="1296" y="0"/>
      <use xlink:href="#f0g110" x="1554" y="0"/>
      <use xlink:href="#f0g103" x="2110" y="0"/>
      <use xlink:href="#f0g32" x="2671" y="0"/>
      <use xlink:href="#f0g112" x="2989" y="0"/>
      <use xlink:href="#f0g101" x="3543" y="0"/>
      <use xlink:href="#f0g111" x="4098" y="0"/>
      <use xlink:href="#f0g112" x="4662" y="0"/>
      <use xlink:href="#f0g108" x="5216" y="0"/>
      <use xlink:href="#f0g101" x="5465" y="0"/>
    </g>
  </a>
  <style>svg { background-color: #FFFFFF; } rect { opacity: 0; }</style>
</svg>